<svg width="24" height="24" viewBox="0 0 24 24" fill="none" xmlns="http://www.w3.org/2000/svg">
<path fill-rule="evenodd" clip-rule="evenodd" d="M14.4 15.6V15.6C13.7372 15.6 13.2 16.1373 13.2 16.8C13.2 17.4628 13.7372 18 14.4 18H20.4V18C21.0627 18 21.6 17.4628 21.6 16.8V10.8C21.6 10.1373 21.0627 9.60003 20.4 9.60003C19.7372 9.60003 19.2 10.1373 19.2 10.8V13.9032L14.0484 8.75163V8.75163C13.5798 8.28317 12.8202 8.28317 12.3516 8.75163L9.59999 11.5032L4.44839 6.35163V6.35163C3.97169 5.89121 3.212 5.90442 2.75159 6.38112C2.30245 6.84615 2.30245 7.5834 2.75159 8.04842L8.75159 14.0484V14.0484C9.22019 14.5169 9.97979 14.5169 10.4484 14.0484L13.2 11.2968L17.5032 15.6H14.4V15.6Z" fill="#68D391"/>
</svg>
