<svg width="269" height="58" fill="none" xmlns="http://www.w3.org/2000/svg"><path d="M31.372 44.913l-12.79-17.215c7-1.588 10.754-6.798 10.754-13.405 0-7.686-5.473-13.848-15.464-13.848H0v44.468h2.99V28.206h10.882c.573 0 1.146 0 1.655-.064l12.409 16.771h3.436zM2.99 25.412V3.303H14c7.509 0 12.345 4.066 12.345 10.99 0 6.861-4.836 11.118-12.345 11.118H2.99zM66.97.445h-3.5L49.024 21.663 34.644.445h-3.5L47.562 24.52v20.392h2.99V24.521L66.97.445zM119.931 0h-2.927v11.88h-.064v7.56h-.318c-2.1-4.765-7.445-8.196-13.427-8.196-7.636 0-16.672 5.781-16.672 17.152 0 11.372 9.036 17.153 16.672 17.153 5.982 0 11.327-3.43 13.427-8.195h.318v7.56h2.927V21.217h.064V0zm-16.609 42.88c-6.363 0-13.872-4.764-13.872-14.484 0-9.72 7.509-14.484 13.872-14.484 6.364 0 13.746 4.765 13.746 14.484 0 9.72-7.382 14.485-13.746 14.485zm39.211-31.636c-7.445 0-16.545 5.781-16.545 17.152 0 11.435 8.718 17.153 17.245 17.153 5.473 0 9.927-1.652 12.918-5.527l-1.909-1.652c-2.545 3.113-6.236 4.51-11.009 4.51-6.809 0-13.681-4.32-14.254-13.213h29.909c.954-12.642-8.846-18.423-16.355-18.423zm0 2.668c5.855 0 13.364 4.384 13.682 13.214H128.98c.573-8.894 7.764-13.214 13.554-13.214zm37.751 4.828l2.418-.889c-1.654-3.939-5.218-6.607-10.054-6.607-5.473 0-9.482 3.494-9.482 8.259 0 3.557 2.164 6.734 7.573 8.64l3.627 1.27c4.264 1.461 7 3.303 7 7.051 0 4.574-4.264 6.544-8.145 6.544-4.073 0-7.764-2.287-8.909-6.67l-2.482.635c1.146 5.463 5.664 8.576 11.327 8.576 5.282 0 11.009-2.922 11.009-9.212 0-5.209-3.691-7.496-9.609-9.529l-2.863-1.016c-4.264-1.525-5.728-3.685-5.728-6.29 0-3.366 2.673-5.717 6.682-5.717 3.754 0 6.236 2.033 7.636 4.955zM192.837 0h-2.927v3.05h2.927V0zm0 11.88h-2.927v33.033h2.927V11.88zm36.526 0v7.56h-.318c-2.1-4.765-7.445-8.196-13.427-8.196-7.636 0-16.672 5.781-16.672 17.152 0 11.372 9.036 17.153 16.672 17.153 5.982 0 11.327-3.43 13.427-8.195h.318v7.56c0 7.242-5.409 10.418-11.072 10.418-5.728 0-9.1-1.715-10.437-2.922v2.731C209.191 56.348 212.5 58 218.291 58c5.918 0 13.999-3.176 13.999-13.087V11.88h-2.927zm-13.618 31c-6.363 0-13.872-4.764-13.872-14.484 0-9.72 7.509-14.484 13.872-14.484 6.364 0 13.745 4.765 13.745 14.484 0 9.72-7.381 14.485-13.745 14.485zm40.528-31.636c-8.463 0-12.091 6.67-12.727 8.64v-8.005h-2.927v33.035h2.927v-20.52c.891-4.192 4.645-10.482 12.282-10.482 5.536 0 10.181 3.748 10.181 11.562v19.44H269V25.6c0-10.1-6.173-14.357-12.727-14.357z" fill="#fcfcfc"/></svg>