<?xml version="1.0" standalone="no"?>
<!DOCTYPE svg PUBLIC "-//W3C//DTD SVG 20010904//EN"
 "http://www.w3.org/TR/2001/REC-SVG-20010904/DTD/svg10.dtd">
<svg version="1.0" xmlns="http://www.w3.org/2000/svg"
 width="512.000000pt" height="512.000000pt" viewBox="0 0 512.000000 512.000000"
 preserveAspectRatio="xMidYMid meet">
<metadata>
Created by potrace 1.11, written by Peter Selinger 2001-2013
</metadata>
<g transform="translate(0.000000,512.000000) scale(0.100000,-0.100000)"
fill="#000000" stroke="none">
<path d="M0 2560 l0 -2560 2560 0 2560 0 0 2560 0 2560 -2560 0 -2560 0 0
-2560z m1755 1159 c440 -54 716 -322 742 -720 18 -294 -103 -547 -334 -697
-34 -21 -75 -45 -92 -52 -19 -7 -31 -20 -31 -31 0 -10 122 -190 270 -401 166
-234 270 -391 270 -405 l0 -23 -267 2 -267 3 -260 382 -261 383 -222 0 -223 0
0 -385 0 -385 -235 0 -235 0 0 1170 0 1170 528 0 c323 0 562 -4 617 -11z
m1560 -402 c128 -224 251 -452 275 -507 24 -55 47 -97 51 -93 4 4 26 50 48
101 22 52 143 278 268 503 l228 408 258 1 c141 0 257 -2 257 -5 0 -3 -187
-325 -415 -716 l-415 -712 0 -453 0 -454 -235 0 -235 0 0 450 0 450 -415 716
c-228 394 -415 718 -415 720 0 2 115 3 257 2 l256 -3 232 -408z"/>
<path d="M1080 2940 l0 -370 298 0 c315 0 365 6 453 51 56 28 119 94 149 154
22 44 25 63 25 165 0 97 -3 122 -22 162 -28 62 -91 129 -148 157 -93 47 -131
51 -452 51 l-303 0 0 -370z"/>
</g>
</svg>
