<?xml version="1.0" standalone="no"?>
<!DOCTYPE svg PUBLIC "-//W3C//DTD SVG 20010904//EN"
 "http://www.w3.org/TR/2001/REC-SVG-20010904/DTD/svg10.dtd">
<svg version="1.0" xmlns="http://www.w3.org/2000/svg"
 width="512.000000pt" height="512.000000pt" viewBox="0 0 512.000000 512.000000"
 preserveAspectRatio="xMidYMid meet">
<metadata>
Created by potrace 1.11, written by Peter Selinger 2001-2013
</metadata>
<g transform="translate(0.000000,512.000000) scale(0.100000,-0.100000)"
fill="#000000" stroke="none">
<path d="M2455 4833 c-149 -54 -235 -180 -229 -338 3 -75 38 -159 90 -211 l39
-39 1 -177 c1 -157 -1 -178 -15 -179 -9 0 -23 -2 -31 -4 -8 -2 -28 -7 -45 -10
-140 -28 -303 -99 -473 -207 l-34 -21 -122 122 -122 122 1 47 c1 82 -30 163
-87 228 -113 128 -315 147 -452 43 -108 -83 -155 -218 -122 -349 38 -147 161
-248 310 -253 l66 -2 122 -122 121 -122 -27 -41 c-39 -59 -78 -130 -120 -218
-25 -51 -66 -178 -82 -252 -4 -19 -9 -38 -10 -42 -1 -5 -2 -17 -3 -27 -1 -18
-11 -19 -178 -17 l-178 1 -39 39 c-159 158 -437 104 -535 -104 -31 -67 -38
-178 -15 -243 85 -241 382 -311 560 -132 l32 32 175 0 175 0 7 -41 c4 -22 9
-45 10 -51 47 -186 119 -347 218 -487 10 -16 -3 -33 -110 -140 l-123 -123 -64
-2 c-75 -2 -153 -33 -211 -84 -143 -126 -149 -351 -14 -487 206 -206 564 -66
573 224 l2 64 119 120 c66 66 123 120 128 120 5 0 23 -11 40 -24 116 -87 345
-181 516 -213 14 -2 28 -6 32 -8 4 -3 6 -83 5 -180 -1 -166 -2 -175 -22 -190
-32 -22 -84 -108 -99 -163 -29 -111 6 -243 85 -321 175 -173 475 -108 555 120
43 122 4 295 -82 357 l-28 20 -1 180 -1 180 41 7 c23 5 43 9 46 9 3 1 30 8 60
15 120 30 230 78 364 160 l88 54 122 -122 121 -121 2 -65 c7 -248 286 -403
501 -278 197 113 227 393 58 541 -66 58 -155 91 -231 86 -39 -2 -44 1 -162
119 -68 67 -123 125 -123 129 0 5 17 32 37 60 86 123 197 408 202 519 1 14 22
16 179 15 l177 -1 39 -39 c128 -127 346 -120 476 16 17 17 42 56 57 87 24 48
28 68 28 141 0 71 -4 94 -27 140 -58 120 -159 188 -292 194 -95 5 -169 -23
-244 -92 l-43 -39 -171 1 -172 1 -26 105 c-42 166 -92 284 -181 425 l-42 67
125 124 c121 121 125 124 164 121 130 -11 280 93 323 224 84 257 -150 508
-404 435 -155 -46 -246 -166 -250 -334 0 -40 -6 -48 -120 -162 -66 -66 -123
-120 -127 -120 -5 0 -29 15 -55 34 -54 38 -182 105 -260 135 -61 24 -235 71
-262 71 -17 0 -18 11 -18 176 l0 175 40 42 c128 135 120 358 -17 480 -87 77
-227 107 -331 70z m300 -1557 c198 -55 380 -207 469 -392 47 -96 66 -171 73
-284 5 -85 2 -116 -23 -239 -14 -69 -87 -207 -146 -277 -243 -285 -654 -347
-968 -146 -222 142 -352 396 -337 661 6 119 26 192 79 298 95 190 281 334 502
388 70 17 274 12 351 -9z"/>
<path d="M2491 2958 c-109 -19 -219 -96 -277 -193 -51 -85 -70 -199 -49 -295
36 -166 205 -308 371 -312 210 -5 385 133 422 332 50 269 -197 516 -467 468z"/>
</g>
</svg>
