<svg width="30" height="30" viewBox="0 0 30 30" fill="none" xmlns="http://www.w3.org/2000/svg"><path fill-rule="evenodd" clip-rule="evenodd" d="M9.04153 23.275C10.7758 24.6671 12.9781 25.5 15.375 25.5C16.7404 25.5 18.0427 25.2297 19.2313 24.7397C18.8274 22.3094 18.0876 19.8001 17.0107 17.2124C13.9873 18.1476 11.3413 20.1639 9.04153 23.275V23.275ZM7.43854 21.6628C9.92061 18.3988 12.8122 16.2224 16.0867 15.1454C15.8755 14.7031 15.6548 14.2586 15.4245 13.8118C14.843 13.9671 14.2402 14.1013 13.617 14.2152C11.1074 14.674 8.93224 14.7633 5.4041 14.7129C5.35781 14.7122 5.31364 14.7116 5.27143 14.711C5.25722 14.9305 5.25001 15.1519 5.25001 15.375C5.25001 17.7509 6.06835 19.9357 7.43855 21.6628H7.43854ZM5.67401 12.4663C8.92311 12.5074 10.9425 12.4168 13.2123 12.0019C13.5896 11.9329 13.9572 11.8561 14.3148 11.7712C13.2975 9.99144 12.1326 8.17766 10.82 6.33C8.36088 7.57083 6.47681 9.78502 5.67402 12.4663L5.67401 12.4663ZM13.0075 5.5283C14.3244 7.41332 15.4947 9.26916 16.518 11.096C18.6743 10.2621 20.3481 9.02283 21.4886 7.30341C19.7898 6.01471 17.6717 5.25 15.375 5.25C14.5597 5.25 13.767 5.34636 13.0075 5.5283V5.5283ZM23.1387 8.87537C21.7808 10.7792 19.9035 12.157 17.5851 13.0953C17.8393 13.5966 18.0821 14.0957 18.3136 14.5926C20.548 14.2093 22.9412 14.2903 25.4861 14.8387C25.3679 12.5739 24.5054 10.5062 23.1387 8.87538L23.1387 8.87537ZM25.3512 17.114C23.1761 16.6086 21.1424 16.4787 19.2437 16.7269C20.1898 19.0616 20.8785 21.3457 21.3089 23.5798C23.4022 22.0633 24.8923 19.7653 25.3512 17.114V17.114ZM15.375 27.75C8.54048 27.75 3 22.2095 3 15.375C3 8.54048 8.54048 3 15.375 3C22.2095 3 27.75 8.54048 27.75 15.375C27.75 22.2095 22.2095 27.75 15.375 27.75Z" fill="#828282"/></svg>