<svg width="30" height="30" viewBox="0 0 30 30" fill="none" xmlns="http://www.w3.org/2000/svg">
<g filter="url(#filter0_d)">
<path d="M25.6386 22.9036L21.4844 18.7616C22.8247 17.054 23.552 14.9454 23.5493 12.7746C23.5493 7.37622 19.173 2.99997 13.7746 2.99997C8.37625 2.99997 4 7.37622 4 12.7746C4 18.173 8.37625 22.5492 13.7746 22.5492C15.9454 22.5519 18.054 21.8247 19.7616 20.4843L23.9036 24.6386C24.3788 25.1177 25.1524 25.1208 25.6315 24.6456C25.6339 24.6433 25.6362 24.6409 25.6386 24.6386C26.1177 24.1634 26.1209 23.3897 25.6457 22.9106C25.6433 22.9083 25.641 22.9059 25.6386 22.9036ZM17.2183 12.9964H13.9965V16.2183C13.9965 16.8931 14.0493 17 13.7746 17C13.5 17 13.5528 16.8931 13.5528 16.2183V12.9964H10.331C9.65617 12.9964 9.5 13.0492 9.5 12.7746C9.5 12.5 9.65617 12.5528 10.331 12.5528H13.5528V9.33094C13.5528 8.65614 13.5528 8.5 13.7746 8.5C13.9965 8.5 13.9965 8.65614 13.9965 9.33094V12.5528H17.2183C17.8931 12.5528 18 12.5 18 12.7746C18 13.0492 17.8931 12.9964 17.2183 12.9964Z" fill="white"/>
<path d="M25.6386 22.9036L21.4844 18.7616C22.8247 17.054 23.552 14.9454 23.5493 12.7746C23.5493 7.37622 19.173 2.99997 13.7746 2.99997C8.37625 2.99997 4 7.37622 4 12.7746C4 18.173 8.37625 22.5492 13.7746 22.5492C15.9454 22.5519 18.054 21.8247 19.7616 20.4843L23.9036 24.6386C24.3788 25.1177 25.1524 25.1208 25.6315 24.6456C25.6339 24.6433 25.6362 24.6409 25.6386 24.6386C26.1177 24.1634 26.1209 23.3897 25.6457 22.9106C25.6433 22.9083 25.641 22.9059 25.6386 22.9036ZM17.2183 12.9964H13.9965V16.2183C13.9965 16.8931 14.0493 17 13.7746 17C13.5 17 13.5528 16.8931 13.5528 16.2183V12.9964H10.331C9.65617 12.9964 9.5 13.0492 9.5 12.7746C9.5 12.5 9.65617 12.5528 10.331 12.5528H13.5528V9.33094C13.5528 8.65614 13.5528 8.5 13.7746 8.5C13.9965 8.5 13.9965 8.65614 13.9965 9.33094V12.5528H17.2183C17.8931 12.5528 18 12.5 18 12.7746C18 13.0492 17.8931 12.9964 17.2183 12.9964Z" stroke="#1E2022" stroke-width="2"/>
</g>
<defs>
<filter id="filter0_d" x="0" y="-3.05176e-05" width="30" height="30" filterUnits="userSpaceOnUse" color-interpolation-filters="sRGB">
<feFlood flood-opacity="0" result="BackgroundImageFix"/>
<feColorMatrix in="SourceAlpha" type="matrix" values="0 0 0 0 0 0 0 0 0 0 0 0 0 0 0 0 0 0 127 0"/>
<feOffset dy="1"/>
<feGaussianBlur stdDeviation="1.5"/>
<feColorMatrix type="matrix" values="0 0 0 0 0 0 0 0 0 0 0 0 0 0 0 0 0 0 0.1 0"/>
<feBlend mode="normal" in2="BackgroundImageFix" result="effect1_dropShadow"/>
<feBlend mode="normal" in="SourceGraphic" in2="effect1_dropShadow" result="shape"/>
</filter>
</defs>
</svg>
