<svg width="32" height="32" viewBox="0 0 32 32" fill="none" xmlns="http://www.w3.org/2000/svg">
<rect width="32" height="32" fill="#1E2022"/>
<path d="M3.80005 8.70001V23.3H6.74392V18.482H9.51749L12.802 23.3H16.1108V23.008L12.729 18.2143V18.0197C14.505 17.2897 15.6242 15.7323 15.6242 13.591C15.6242 10.6467 13.4102 8.70001 10.0284 8.70001H3.80005ZM12.583 13.6153C12.583 15.1727 11.4639 15.9513 9.93109 15.9513H6.74392V11.2793H9.85811C11.4639 11.2793 12.583 12.0337 12.583 13.6153Z" fill="white"/>
<path d="M23.3177 13.7857L22.7338 15.124L22.1498 13.7857L19.2546 8.70001H16.0431L21.2497 17.679V23.3H24.1935V17.6303L29.4 8.70001H26.1642L23.3177 13.7857Z" fill="white"/>
</svg>
