<?xml version="1.0" standalone="no"?>
<!DOCTYPE svg PUBLIC "-//W3C//DTD SVG 20010904//EN"
 "http://www.w3.org/TR/2001/REC-SVG-20010904/DTD/svg10.dtd">
<svg version="1.0" xmlns="http://www.w3.org/2000/svg"
 width="512.000000pt" height="512.000000pt" viewBox="0 0 512.000000 512.000000"
 preserveAspectRatio="xMidYMid meet">
<metadata>
Created by potrace 1.11, written by Peter Selinger 2001-2013
</metadata>
<g transform="translate(0.000000,512.000000) scale(0.100000,-0.100000)"
fill="#000000" stroke="none">
<path d="M0 2560 l0 -2560 2560 0 2560 0 0 2560 0 2560 -2560 0 -2560 0 0
-2560z m1854 1021 c273 -77 445 -250 501 -504 25 -115 17 -283 -19 -395 -64
-197 -233 -357 -439 -417 l-58 -17 38 -51 c21 -29 160 -216 308 -417 149 -201
274 -371 279 -377 5 -10 -12 -13 -77 -13 l-84 0 -302 409 c-166 225 -307 413
-314 418 -7 4 -150 7 -319 5 l-308 -3 0 -414 0 -415 -75 0 -75 0 0 1111 0
1110 433 -3 c411 -4 436 -5 511 -27z m1187 -496 c195 -288 358 -523 363 -522
5 2 169 238 364 525 l354 522 84 0 c46 0 84 -3 84 -6 0 -3 -182 -274 -405
-601 l-405 -595 0 -509 0 -509 -75 0 -75 0 0 509 0 510 -405 594 c-223 327
-405 598 -405 601 0 3 37 6 83 6 l84 0 354 -525z"/>
<path d="M1060 2915 l0 -557 338 4 c303 5 345 7 415 26 206 56 342 188 392
378 19 75 19 233 0 309 -48 181 -194 319 -396 371 -51 13 -132 18 -406 21
l-343 5 0 -557z"/>
</g>
</svg>
