<svg width="40" height="40" viewBox="0 0 40 40" fill="none" xmlns="http://www.w3.org/2000/svg">
<path d="M20 9.99998V9.99998C20.9205 9.99998 21.6667 9.25379 21.6667 8.33331V4.99998C21.6667 4.0795 20.9205 3.33331 20 3.33331C19.0795 3.33331 18.3333 4.0795 18.3333 4.99998V8.33331V8.33331C18.3333 9.25379 19.0795 9.99998 20 9.99998V9.99998Z" fill="#4A5568"/>
<path d="M35 18.3333H31.6667V18.3333C30.7462 18.3333 30 19.0795 30 20C30 20.9205 30.7462 21.6666 31.6667 21.6666H35V21.6666C35.9205 21.6666 36.6667 20.9205 36.6667 20C36.6667 19.0795 35.9205 18.3333 35 18.3333V18.3333Z" fill="#4A5568"/>
<path d="M10 20C10 19.0795 9.25382 18.3333 8.33334 18.3333H5.00001V18.3333C4.07954 18.3333 3.33334 19.0795 3.33334 20C3.33334 20.9205 4.07954 21.6666 5.00001 21.6666H8.33334V21.6666C9.25382 21.6666 10 20.9205 10 20V20Z" fill="#4A5568"/>
<path d="M10.3667 8.33334V8.33334C9.69012 7.69361 8.62307 7.72346 7.98333 8.40001C7.3436 9.07656 7.37345 10.1436 8.05 10.7833V10.7833L10.45 13.1V13.1C10.7754 13.4142 11.2146 13.5827 11.6667 13.5667V13.5667C12.1203 13.5649 12.5537 13.3784 12.8667 13.05V13.05C13.5129 12.3999 13.5129 11.3501 12.8667 10.7L10.3667 8.33334Z" fill="#4A5568"/>
<path d="M28.3333 13.5666V13.5666C28.7624 13.5649 29.1744 13.3978 29.4833 13.1L31.8833 10.7833V10.7833C32.5198 10.1183 32.4966 9.06329 31.8316 8.42686C31.2265 7.8477 30.2855 7.80765 29.6333 8.33331L27.2333 10.7V10.7C26.5871 11.35 26.5871 12.3999 27.2333 13.05V13.05C27.5219 13.3545 27.9147 13.539 28.3333 13.5666L28.3333 13.5666Z" fill="#4A5568"/>
<path d="M20 30V30C19.0795 30 18.3333 30.7462 18.3333 31.6667V31.6667V35V35C18.3333 35.9205 19.0795 36.6667 20 36.6667C20.9205 36.6667 21.6667 35.9205 21.6667 35V31.6667C21.6667 30.7462 20.9205 30 20 30V30Z" fill="#4A5568"/>
<path d="M29.55 26.9V26.9C28.8873 26.2603 27.8314 26.2789 27.1917 26.9417C26.552 27.6044 26.5706 28.6603 27.2334 29.3L29.6334 31.6667V31.6667C29.9423 31.9645 30.3543 32.1316 30.7834 32.1334V32.1334C31.2346 32.136 31.6675 31.9556 31.9834 31.6334V31.6334C32.6369 30.9852 32.6412 29.9299 31.993 29.2764C31.9898 29.2731 31.9866 29.2699 31.9834 29.2667L29.55 26.9Z" fill="#4A5568"/>
<path d="M10.45 26.9L8.05 29.2167V29.2167C7.39647 29.8649 7.39214 30.9201 8.04034 31.5737C8.04355 31.5769 8.04677 31.5801 8.05 31.5833V31.5833C8.36583 31.9056 8.79881 32.086 9.25 32.0833V32.0833C9.66086 32.0868 10.0585 31.9385 10.3667 31.6667L12.7667 29.35V29.35C13.4294 28.7103 13.4481 27.6544 12.8083 26.9917C12.1686 26.3289 11.1128 26.3103 10.45 26.95V26.9Z" fill="#4A5568"/>
<path d="M20 13.3333V13.3333C16.3181 13.3333 13.3333 16.3181 13.3333 20C13.3333 23.6819 16.3181 26.6666 20 26.6666C23.6819 26.6666 26.6667 23.6819 26.6667 20C26.6667 16.3181 23.6819 13.3333 20 13.3333V13.3333Z" fill="#4A5568"/>
</svg>
