<svg xmlns="http://www.w3.org/2000/svg" width="28" viewBox="0 0 40 40" fill="#fff"><path d="M21.5 10.75a1.79 1.79 0 0 0 1.792-1.792V5.375a1.792 1.792 0 1 0-3.583 0v3.583A1.79 1.79 0 0 0 21.5 10.75zm16.125 8.958h-3.583a1.792 1.792 0 1 0 0 3.583h3.583a1.792 1.792 0 1 0 0-3.583zM10.75 21.5a1.79 1.79 0 0 0-1.792-1.792H5.375a1.792 1.792 0 1 0 0 3.583h3.583A1.79 1.79 0 0 0 10.75 21.5zm.394-12.542a1.81 1.81 0 1 0-2.49 2.634l2.58 2.5a1.79 1.79 0 0 0 1.308.502 1.79 1.79 0 0 0 1.29-.555 1.79 1.79 0 0 0 0-2.526L11.145 8.97zm19.314 5.626a1.79 1.79 0 0 0 1.236-.502l2.58-2.5a1.79 1.79 0 0 0-2.419-2.634l-2.58 2.544a1.79 1.79 0 0 0 0 2.526 1.79 1.79 0 0 0 1.183.555zM21.5 32.25a1.79 1.79 0 0 0-1.792 1.792v3.583a1.792 1.792 0 1 0 3.583 0v-3.583A1.79 1.79 0 0 0 21.5 32.25zm10.266-3.332a1.79 1.79 0 0 0-2.535.045c-.687.713-.668 1.848.045 2.535l2.58 2.544a1.79 1.79 0 0 0 2.536-2.57l-2.626-2.555zm-20.532 0l-2.58 2.5a1.79 1.79 0 0 0-.01 2.534l.01.01a1.79 1.79 0 0 0 1.29.538c.442.004.87-.156 1.2-.448l2.58-2.5c.712-.688.732-1.823.045-2.535s-1.823-.732-2.535-.045v-.054zM21.5 14.333a7.17 7.17 0 0 0-7.167 7.167 7.17 7.17 0 0 0 7.167 7.167 7.17 7.17 0 0 0 7.167-7.167 7.17 7.17 0 0 0-7.167-7.167z"/></svg>